# xmcd
#
# Track frame offsets:
#	150
#	11545
#	26485
#	41203
#	54755
#	68482
#	84123
#	94861
#	105588
#	120637
#	131391
#	140986
#	155073
#	169115
#	179304
#
# Disc length: 2555 seconds
#
# Revision: 1
# Processed by: cddbd v1.5.2PL0 Copyright (c) Steve Scherf et al.
# Submitted via: audiograbber 1.83.01
#
DISCID=bd09f90f
DTITLE=Chartbuster - CB-E2-02R
DYEAR=1900
DGENRE=Karaoke
TTITLE0=Loretta Lynn And Conway Twitty - Louisiana Woman, Mississippi Man
TTITLE1=George Jones And Tammy Wynette - Golden Ring
TTITLE2=Dottie West And Kenny Rogers - What Are We Doin' In Love
TTITLE3=Kenny Rogers And Dottie West - Every Time Two Fools Collide
TTITLE4=George Jones And Tammy Wynette - We're Gonna Hold On
TTITLE5=Reba McEntire And Vince Gill - Heart Won't Lie, The
TTITLE6=Jimmie Rodgers - Kisses Sweeter Than Wine
TTITLE7=Barbara Mandrell - Sleeping Single In A Double Bed
TTITLE8=Lefty Frizzell - Always Late (With Your Kisses)
TTITLE9=Jim Reeves - He'll Have To Go
TTITLE10=Loretta Lynn - Don't Come Home A'Drinkin' (With Lovin' On Your Mind)
TTITLE11=Don Williams - Tulsa Time
TTITLE12=Hank Williams - I'm So Lonesome I Could Cry
TTITLE13=Patsey Cline - Back In Baby's Arms
TTITLE14=Buck Owens - Together Again
EXTD=
EXTT0=
EXTT1=
EXTT2=
EXTT3=
EXTT4=
EXTT5=
EXTT6=
EXTT7=
EXTT8=
EXTT9=
EXTT10=
EXTT11=
EXTT12=
EXTT13=
EXTT14=
PLAYORDER=
